FacadeStencil-Regular.ufo
<glyph name="hyphen" format="2">
  <advance width="360"/>
  <unicode hex="002D"/>
  <outline>
    <contour>
      <point x="30" y="252" type="line"/>
      <point x="330" y="252" type="line"/>
      <point x="330" y="348" type="line"/>
      <point x="30" y="348" type="line"/>
    </contour>
  </outline>
</glyph>
<glyph name="greater" format="2">
  <advance width="750"/>
  <unicode hex="003E"/>
  <outline>
    <contour>
      <point x="90" y="158" type="line"/>
      <point x="690" y="452" type="line"/>
      <point x="90" y="744" type="line"/>
      <point x="90" y="646" type="line"/>
      <point x="390" y="502" type="line" smooth="yes"/>
      <point x="427" y="484"/>
      <point x="470" y="467"/>
      <point x="511" y="451" type="curve"/>
      <point x="470" y="434"/>
      <point x="427" y="417"/>
      <point x="390" y="399" type="curve" smooth="yes"/>
      <point x="90" y="254" type="line"/>
    </contour>
  </outline>
</glyph>
<glyph name="B" format="2">
  <advance width="750"/>
  <unicode hex="0042"/>
  <outline>
    <contour>
      <point x="300" y="0" type="line"/>
      <point x="378" y="0" type="line" smooth="yes"/>
      <point x="582" y="0"/>
      <point x="690" y="144"/>
      <point x="690" y="287" type="curve" smooth="yes"/>
      <point x="690" y="410"/>
      <point x="610" y="510"/>
      <point x="497" y="547" type="curve"/>
      <point x="501" y="522" type="line"/>
      <point x="566" y="553"/>
      <point x="609" y="617"/>
      <point x="609" y="692" type="curve" smooth="yes"/>
      <point x="609" y="778"/>
      <point x="549" y="900"/>
      <point x="378" y="900" type="curve" smooth="yes"/>
      <point x="300" y="900" type="line"/>
      <point x="300" y="798" type="line"/>
      <point x="373" y="798" type="line" smooth="yes"/>
      <point x="448" y="798"/>
      <point x="501" y="759"/>
      <point x="501" y="686" type="curve" smooth="yes"/>
      <point x="501" y="615"/>
      <point x="448" y="576"/>
      <point x="369" y="576" type="curve" smooth="yes"/>
      <point x="300" y="576" type="line"/>
      <point x="300" y="480" type="line"/>
      <point x="370" y="480" type="line" smooth="yes"/>
      <point x="521" y="480"/>
      <point x="576" y="375"/>
      <point x="576" y="291" type="curve" smooth="yes"/>
      <point x="576" y="204"/>
      <point x="517" y="102"/>
      <point x="370" y="102" type="curve" smooth="yes"/>
      <point x="300" y="102" type="line"/>
    </contour>
    <contour>
      <point x="126" y="0" type="line"/>
      <point x="240" y="0" type="line"/>
      <point x="240" y="900" type="line"/>
      <point x="126" y="900" type="line"/>
    </contour>
  </outline>
</glyph>
<glyph name="N" format="2">
  <advance width="990"/>
  <unicode hex="004E"/>
  <anchor x="495" y="0" name="bottom"/>
  <anchor x="495" y="900" name="top"/>
  <outline>
    <contour>
      <point x="864" y="-30" type="line"/>
      <point x="864" y="139" type="line"/>
      <point x="126" y="930" type="line"/>
      <point x="126" y="761" type="line"/>
    </contour>
    <contour>
      <point x="126" y="0" type="line"/>
      <point x="234" y="0" type="line"/>
      <point x="234" y="555" type="line"/>
      <point x="126" y="671" type="line"/>
    </contour>
    <contour>
      <point x="864" y="229" type="line"/>
      <point x="864" y="900" type="line"/>
      <point x="756" y="900" type="line"/>
      <point x="756" y="344" type="line"/>
    </contour>
  </outline>
</glyph>
<glyph name="W" format="2">
  <advance width="1200"/>
  <unicode hex="0057"/>
  <anchor x="601" y="0" name="bottom"/>
  <anchor x="604" y="900" name="top"/>
  <outline>
    <contour>
      <point x="842" y="-30" type="line"/>
      <point x="897" y="117" type="line"/>
      <point x="604" y="930" type="line"/>
      <point x="398" y="360" type="line"/>
      <point x="449" y="224" type="line"/>
      <point x="568" y="554" type="line" smooth="yes"/>
      <point x="580" y="588"/>
      <point x="590" y="616"/>
      <point x="601" y="667" type="curve"/>
      <point x="611" y="616"/>
      <point x="622" y="588"/>
      <point x="634" y="554" type="curve" smooth="yes"/>
    </contour>
    <contour>
      <point x="359" y="-30" type="line"/>
      <point x="417" y="134" type="line"/>
      <point x="128" y="900" type="line"/>
      <point x="12" y="900" type="line"/>
    </contour>
    <contour>
      <point x="930" y="207" type="line"/>
      <point x="1188" y="900" type="line"/>
      <point x="1080" y="900" type="line"/>
      <point x="876" y="360" type="line"/>
    </contour>
  </outline>
</glyph>
<glyph name="X" format="2">
  <advance width="870"/>
  <unicode hex="0058"/>
  <outline>
    <contour>
      <point x="725" y="0" type="line"/>
      <point x="864" y="0" type="line"/>
      <point x="243" y="900" type="line"/>
      <point x="108" y="900" type="line"/>
    </contour>
    <contour>
      <point x="6" y="0" type="line"/>
      <point x="139" y="0" type="line"/>
      <point x="395" y="378" type="line"/>
      <point x="332" y="471" type="line"/>
    </contour>
    <contour>
      <point x="538" y="577" type="line"/>
      <point x="762" y="900" type="line"/>
      <point x="633" y="900" type="line"/>
      <point x="476" y="668" type="line"/>
    </contour>
  </outline>
</glyph>
<glyph name="Y" format="2">
  <advance width="690"/>
  <unicode hex="0059"/>
  <anchor x="346" y="0" name="bottom"/>
  <anchor x="346" y="900" name="top"/>
  <anchor x="23" y="900" name="topleft"/>
  <outline>
    <contour>
      <point x="288" y="0" type="line"/>
      <point x="402" y="0" type="line"/>
      <point x="402" y="435" type="line"/>
      <point x="150" y="900" type="line"/>
      <point x="18" y="900" type="line"/>
      <point x="288" y="435" type="line"/>
    </contour>
    <contour>
      <point x="439" y="500" type="line"/>
      <point x="672" y="900" type="line"/>
      <point x="552" y="900" type="line"/>
      <point x="384" y="603" type="line"/>
    </contour>
  </outline>
</glyph>
<glyph name="bracketleft" format="2">
  <advance width="480"/>
  <unicode hex="005B"/>
  <outline>
    <contour>
      <point x="120" y="-180" type="line"/>
      <point x="420" y="-180" type="line"/>
      <point x="420" y="-90" type="line"/>
      <point x="222" y="-90" type="line"/>
      <point x="222" y="870" type="line"/>
      <point x="420" y="870" type="line"/>
      <point x="420" y="960" type="line"/>
      <point x="120" y="960" type="line"/>
    </contour>
  </outline>
</glyph>
<glyph name="c" format="2">
  <advance width="630"/>
  <unicode hex="0063"/>
  <anchor x="371" y="0" name="bottom"/>
  <anchor x="371" y="600" name="top"/>
  <outline>
    <contour>
      <point x="338" y="-11" type="curve"/>
      <point x="338" y="92" type="line"/>
      <point x="238" y="106"/>
      <point x="162" y="195"/>
      <point x="162" y="300" type="curve" smooth="yes"/>
      <point x="162" y="405"/>
      <point x="238" y="494"/>
      <point x="338" y="508" type="curve"/>
      <point x="338" y="611" type="line"/>
      <point x="178" y="596"/>
      <point x="54" y="462"/>
      <point x="54" y="300" type="curve" smooth="yes"/>
      <point x="54" y="138"/>
      <point x="178" y="4"/>
    </contour>
    <contour>
      <point x="402" y="-11" type="line"/>
      <point x="477" y="-4"/>
      <point x="544" y="27"/>
      <point x="594" y="72" type="curve"/>
      <point x="561" y="208" type="line"/>
      <point x="531" y="148"/>
      <point x="473" y="103"/>
      <point x="402" y="92" type="curve"/>
    </contour>
    <contour>
      <point x="561" y="392" type="curve"/>
      <point x="594" y="528" type="line"/>
      <point x="544" y="573"/>
      <point x="477" y="604"/>
      <point x="402" y="611" type="curve"/>
      <point x="402" y="508" type="line"/>
      <point x="473" y="497"/>
      <point x="531" y="451"/>
    </contour>
  </outline>
</glyph>
<glyph name="l" format="2">
  <advance width="300"/>
  <unicode hex="006C"/>
  <anchor x="150" y="0" name="bottom"/>
  <anchor x="150" y="480" name="center"/>
  <anchor x="360" y="420" name="periodcentered"/>
  <anchor x="150" y="960" name="top"/>
  <anchor x="204" y="960" name="topright"/>
  <outline>
    <contour>
      <point x="96" y="0" type="line"/>
      <point x="204" y="0" type="line"/>
      <point x="204" y="960" type="line"/>
      <point x="96" y="960" type="line"/>
    </contour>
  </outline>
</glyph>
<glyph name="m" format="2">
  <advance width="1120"/>
  <unicode hex="006D"/>
  <anchor x="566" y="0" name="bottom"/>
  <anchor x="566" y="600" name="top"/>
  <outline>
    <contour>
      <point x="928" y="0" type="line"/>
      <point x="1036" y="0" type="line"/>
      <point x="1036" y="355" type="line" smooth="yes"/>
      <point x="1036" y="511"/>
      <point x="924" y="612"/>
      <point x="788" y="612" type="curve" smooth="yes"/>
      <point x="718" y="612"/>
      <point x="651" y="586"/>
      <point x="604" y="535" type="curve"/>
      <point x="606" y="571" type="line"/>
      <point x="637" y="534"/>
      <point x="660" y="488"/>
      <point x="672" y="435" type="curve"/>
      <point x="647" y="445" type="line"/>
      <point x="676" y="489"/>
      <point x="725" y="509"/>
      <point x="774" y="509" type="curve" smooth="yes"/>
      <point x="855" y="509"/>
      <point x="928" y="451"/>
      <point x="928" y="342" type="curve" smooth="yes"/>
    </contour>
    <contour>
      <point x="96" y="0" type="line"/>
      <point x="204" y="0" type="line"/>
      <point x="204" y="600" type="line"/>
      <point x="96" y="600" type="line"/>
    </contour>
    <contour>
      <point x="512" y="0" type="line"/>
      <point x="620" y="0" type="line"/>
      <point x="620" y="355" type="line" smooth="yes"/>
      <point x="620" y="511"/>
      <point x="515" y="612"/>
      <point x="386" y="612" type="curve" smooth="yes"/>
      <point x="343" y="612"/>
      <point x="301" y="601"/>
      <point x="264" y="579" type="curve"/>
      <point x="264" y="481" type="line"/>
      <point x="292" y="501"/>
      <point x="326" y="510"/>
      <point x="358" y="510" type="curve" smooth="yes"/>
      <point x="434" y="510"/>
      <point x="512" y="455"/>
      <point x="512" y="342" type="curve" smooth="yes"/>
    </contour>
  </outline>
</glyph>
<glyph name="o" format="2">
  <advance width="740"/>
  <unicode hex="006F"/>
  <anchor x="370" y="0" name="bottom"/>
  <anchor x="370" y="300" name="center"/>
  <anchor x="400" y="0" name="ogonek"/>
  <anchor x="370" y="600" name="top"/>
  <anchor x="530" y="600" name="topright"/>
  <outline>
    <contour>
      <point x="404" y="-11" type="line"/>
      <point x="563" y="4"/>
      <point x="686" y="137"/>
      <point x="686" y="300" type="curve" smooth="yes"/>
      <point x="686" y="463"/>
      <point x="563" y="596"/>
      <point x="404" y="611" type="curve"/>
      <point x="404" y="508" type="line"/>
      <point x="503" y="493"/>
      <point x="578" y="406"/>
      <point x="578" y="300" type="curve" smooth="yes"/>
      <point x="578" y="194"/>
      <point x="503" y="107"/>
      <point x="404" y="92" type="curve"/>
    </contour>
    <contour>
      <point x="336" y="-11" type="curve"/>
      <point x="336" y="92" type="line"/>
      <point x="236" y="107"/>
      <point x="162" y="194"/>
      <point x="162" y="300" type="curve" smooth="yes"/>
      <point x="162" y="406"/>
      <point x="236" y="493"/>
      <point x="336" y="508" type="curve"/>
      <point x="336" y="611" type="line"/>
      <point x="177" y="596"/>
      <point x="54" y="463"/>
      <point x="54" y="300" type="curve" smooth="yes"/>
      <point x="54" y="137"/>
      <point x="177" y="4"/>
    </contour>
  </outline>
</glyph>
<glyph name="q" format="2">
  <advance width="760"/>
  <unicode hex="0071"/>
  <outline>
    <contour>
      <point x="353" y="-8" type="curve" smooth="yes"/>
      <point x="405" y="-8"/>
      <point x="453" y="5"/>
      <point x="496" y="28" type="curve"/>
      <point x="496" y="136" type="line"/>
      <point x="460" y="107"/>
      <point x="416" y="90"/>
      <point x="367" y="90" type="curve" smooth="yes"/>
      <point x="253" y="90"/>
      <point x="162" y="184"/>
      <point x="162" y="300" type="curve" smooth="yes"/>
      <point x="162" y="416"/>
      <point x="253" y="510"/>
      <point x="367" y="510" type="curve" smooth="yes"/>
      <point x="416" y="510"/>
      <point x="460" y="493"/>
      <point x="496" y="464" type="curve"/>
      <point x="496" y="572" type="line"/>
      <point x="453" y="595"/>
      <point x="405" y="608"/>
      <point x="353" y="608" type="curve" smooth="yes"/>
      <point x="188" y="608"/>
      <point x="54" y="470"/>
      <point x="54" y="300" type="curve" smooth="yes"/>
      <point x="54" y="130"/>
      <point x="188" y="-8"/>
    </contour>
    <contour>
      <point x="556" y="-300" type="line"/>
      <point x="664" y="-300" type="line"/>
      <point x="664" y="600" type="line"/>
      <point x="556" y="600" type="line"/>
    </contour>
  </outline>
</glyph>
<glyph name="u" format="2">
  <advance width="720"/>
  <unicode hex="0075"/>
  <anchor x="360" y="0" name="bottom"/>
  <anchor x="574" y="0" name="ogonek"/>
  <anchor x="360" y="600" name="top"/>
  <anchor x="570" y="600" name="topright"/>
  <outline>
    <contour>
      <point x="325" y="-12" type="curve" smooth="yes"/>
      <point x="372" y="-12"/>
      <point x="417" y="1"/>
      <point x="456" y="26" type="curve"/>
      <point x="456" y="125" type="line"/>
      <point x="427" y="102"/>
      <point x="391" y="90"/>
      <point x="354" y="90" type="curve" smooth="yes"/>
      <point x="251" y="90"/>
      <point x="192" y="175"/>
      <point x="192" y="270" type="curve" smooth="yes"/>
      <point x="192" y="600" type="line"/>
      <point x="84" y="600" type="line"/>
      <point x="84" y="255" type="line" smooth="yes"/>
      <point x="84" y="86"/>
      <point x="198" y="-12"/>
    </contour>
    <contour>
      <point x="516" y="0" type="line"/>
      <point x="624" y="0" type="line"/>
      <point x="624" y="600" type="line"/>
      <point x="516" y="600" type="line"/>
    </contour>
  </outline>
</glyph>
<glyph name="brokenbar" format="2">
  <advance width="480"/>
  <unicode hex="00A6"/>
  <outline>
    <contour>
      <point x="192" y="-180" type="line"/>
      <point x="288" y="-180" type="line"/>
      <point x="288" y="240" type="line"/>
      <point x="192" y="240" type="line"/>
    </contour>
    <contour>
      <point x="192" y="540" type="line"/>
      <point x="288" y="540" type="line"/>
      <point x="288" y="960" type="line"/>
      <point x="192" y="960" type="line"/>
    </contour>
  </outline>
</glyph>
<glyph name="ae" format="2">
  <advance width="1140"/>
  <unicode hex="00E6"/>
  <anchor x="570" y="0" name="bottom"/>
  <anchor x="570" y="600" name="top"/>
  <outline>
    <contour>
      <point x="284" y="-8" type="curve"/>
      <point x="284" y="82" type="line"/>
      <point x="204" y="86"/>
      <point x="162" y="130"/>
      <point x="162" y="184" type="curve" smooth="yes"/>
      <point x="162" y="251"/>
      <point x="228" y="288"/>
      <point x="321" y="288" type="curve" smooth="yes"/>
      <point x="361" y="288"/>
      <point x="403" y="281"/>
      <point x="442" y="270" type="curve"/>
      <point x="595" y="270" type="line"/>
      <point x="593" y="282"/>
      <point x="592" y="295"/>
      <point x="592" y="308" type="curve"/>
      <point x="586" y="308" type="line"/>
      <point x="586" y="409"/>
      <point x="662" y="501"/>
      <point x="763" y="514" type="curve"/>
      <point x="763" y="611" type="line"/>
      <point x="683" y="603"/>
      <point x="613" y="563"/>
      <point x="564" y="505" type="curve"/>
      <point x="519" y="567"/>
      <point x="440" y="604"/>
      <point x="344" y="608" type="curve"/>
      <point x="344" y="511" type="line"/>
      <point x="436" y="504"/>
      <point x="490" y="450"/>
      <point x="503" y="381" type="curve"/>
      <point x="495" y="336" type="line"/>
      <point x="444" y="363"/>
      <point x="382" y="378"/>
      <point x="314" y="378" type="curve" smooth="yes"/>
      <point x="165" y="378"/>
      <point x="54" y="306"/>
      <point x="54" y="184" type="curve" smooth="yes"/>
      <point x="54" y="69"/>
      <point x="153" y="-8"/>
    </contour>
    <contour>
      <point x="763" y="-9" type="curve"/>
      <point x="763" y="95" type="line"/>
      <point x="695" y="111"/>
      <point x="640" y="156"/>
      <point x="612" y="216" type="curve"/>
      <point x="506" y="216" type="line"/>
      <point x="484" y="150"/>
      <point x="419" y="102"/>
      <point x="344" y="87" type="curve"/>
      <point x="344" y="-3" type="line"/>
      <point x="429" y="10"/>
      <point x="503" y="51"/>
      <point x="550" y="121" type="curve"/>
      <point x="598" y="52"/>
      <point x="673" y="4"/>
    </contour>
    <contour>
      <point x="130" y="429" type="line"/>
      <point x="168" y="470"/>
      <point x="220" y="500"/>
      <point x="284" y="509" type="curve"/>
      <point x="284" y="606" type="line"/>
      <point x="212" y="598"/>
      <point x="150" y="573"/>
      <point x="102" y="541" type="curve"/>
    </contour>
    <contour>
      <point x="823" y="-12" type="line"/>
      <point x="901" y="-10"/>
      <point x="973" y="17"/>
      <point x="1028" y="62" type="curve"/>
      <point x="998" y="185" type="line"/>
      <point x="960" y="130"/>
      <point x="895" y="93"/>
      <point x="823" y="90" type="curve"/>
    </contour>
    <contour>
      <point x="528" y="270" type="line"/>
      <point x="1092" y="270" type="line"/>
      <point x="1092" y="314" type="line" smooth="yes"/>
      <point x="1092" y="472"/>
      <point x="973" y="595"/>
      <point x="823" y="610" type="curve"/>
      <point x="823" y="513" type="line"/>
      <point x="918" y="498"/>
      <point x="994" y="416"/>
      <point x="994" y="313" type="curve"/>
      <point x="1016" y="351" type="line"/>
      <point x="978" y="357"/>
      <point x="941" y="360"/>
      <point x="903" y="360" type="curve" smooth="yes"/>
      <point x="700" y="360" type="line"/>
      <point x="643" y="360"/>
      <point x="585" y="352"/>
      <point x="528" y="340" type="curve"/>
    </contour>
  </outline>
</glyph>
<glyph name="eogonek" format="2">
  <advance width="710"/>
  <unicode hex="0119"/>
  <anchor x="355" y="600" name="top"/>
  <outline>
    <contour>
      <point x="349" y="-11" type="curve"/>
      <point x="349" y="92" type="line"/>
      <point x="241" y="107"/>
      <point x="162" y="197"/>
      <point x="162" y="308" type="curve"/>
      <point x="156" y="308" type="line"/>
      <point x="156" y="408"/>
      <point x="228" y="498"/>
      <point x="325" y="514" type="curve"/>
      <point x="325" y="611" type="line"/>
      <point x="172" y="596"/>
      <point x="54" y="466"/>
      <point x="54" y="306" type="curve" smooth="yes"/>
      <point x="54" y="137"/>
      <point x="177" y="3"/>
    </contour>
    <contour>
      <point x="270" y="270" type="curve" smooth="yes"/>
      <point x="662" y="270" type="line"/>
      <point x="662" y="314" type="line" smooth="yes"/>
      <point x="662" y="473"/>
      <point x="541" y="596"/>
      <point x="389" y="611" type="curve"/>
      <point x="389" y="514" type="line"/>
      <point x="484" y="499"/>
      <point x="560" y="417"/>
      <point x="560" y="314" type="curve"/>
      <point x="582" y="351" type="line"/>
      <point x="544" y="357"/>
      <point x="507" y="360"/>
      <point x="469" y="360" type="curve" smooth="yes"/>
      <point x="270" y="360" type="line" smooth="yes"/>
      <point x="213" y="360"/>
      <point x="155" y="352"/>
      <point x="98" y="340" type="curve"/>
      <point x="98" y="290" type="line"/>
      <point x="155" y="278"/>
      <point x="213" y="270"/>
    </contour>
    <contour>
      <point x="413" y="-11" type="line"/>
      <point x="483" y="-5"/>
      <point x="547" y="21"/>
      <point x="598" y="62" type="curve"/>
      <point x="568" y="185" type="line"/>
      <point x="533" y="136"/>
      <point x="477" y="100"/>
      <point x="413" y="92" type="curve"/>
    </contour>
    <contour>
      <point x="553" y="-312" type="curve"/>
      <point x="575" y="-219" type="line"/>
      <point x="524" y="-219"/>
      <point x="488" y="-195"/>
      <point x="488" y="-134" type="curve" smooth="yes"/>
      <point x="488" y="-100"/>
      <point x="499" y="-66"/>
      <point x="531" y="-19" type="curve"/>
      <point x="537" y="-36" type="line"/>
      <point x="491" y="-54"/>
      <point x="442" y="-65"/>
      <point x="390" y="-66" type="curve"/>
      <point x="419" y="-45" type="line"/>
      <point x="399" y="-80"/>
      <point x="388" y="-115"/>
      <point x="388" y="-153" type="curve" smooth="yes"/>
      <point x="388" y="-254"/>
      <point x="466" y="-312"/>
    </contour>
  </outline>
</glyph>
<glyph name="OE" format="2">
  <advance width="1380"/>
  <unicode hex="0152"/>
  <anchor x="530" y="0" name="bottom"/>
  <anchor x="530" y="450" name="center"/>
  <anchor x="530" y="0" name="ogonek"/>
  <anchor x="530" y="900" name="top"/>
  <anchor x="530" y="540" name="top-vertical"/>
  <anchor x="60" y="900" name="topleft"/>
  <anchor x="1000" y="900" name="topright"/>
  <outline>
    <contour>
      <point x="499" y="-17" type="curve"/>
      <point x="499" y="91" type="line"/>
      <point x="316" y="107"/>
      <point x="178" y="262"/>
      <point x="178" y="450" type="curve" smooth="yes"/>
      <point x="178" y="638"/>
      <point x="316" y="793"/>
      <point x="499" y="809" type="curve"/>
      <point x="499" y="917" type="line"/>
      <point x="253" y="902"/>
      <point x="60" y="699"/>
      <point x="60" y="450" type="curve" smooth="yes"/>
      <point x="60" y="201"/>
      <point x="257" y="-1"/>
    </contour>
    <contour>
      <point x="559" y="-17" type="line"/>
      <point x="702" y="-8"/>
      <point x="827" y="69"/>
      <point x="896" y="180" type="curve"/>
      <point x="882" y="204" type="line"/>
      <point x="882" y="0" type="line"/>
      <point x="990" y="0" type="line"/>
      <point x="990" y="900" type="line"/>
      <point x="882" y="900" type="line"/>
      <point x="882" y="696" type="line"/>
      <point x="896" y="720" type="line"/>
      <point x="827" y="831"/>
      <point x="702" y="908"/>
      <point x="559" y="917" type="curve"/>
      <point x="559" y="809" type="line"/>
      <point x="743" y="794"/>
      <point x="882" y="639"/>
      <point x="882" y="450" type="curve" smooth="yes"/>
      <point x="882" y="261"/>
      <point x="743" y="106"/>
      <point x="559" y="91" type="curve"/>
    </contour>
    <contour>
      <point x="1050" y="0" type="line"/>
      <point x="1320" y="0" type="line"/>
      <point x="1320" y="102" type="line"/>
      <point x="1050" y="102" type="line"/>
    </contour>
    <contour>
      <point x="1050" y="504" type="line"/>
      <point x="1250" y="504" type="line"/>
      <point x="1250" y="606" type="line"/>
      <point x="1050" y="606" type="line"/>
    </contour>
    <contour>
      <point x="1050" y="798" type="line"/>
      <point x="1320" y="798" type="line"/>
      <point x="1320" y="900" type="line"/>
      <point x="1050" y="900" type="line"/>
    </contour>
  </outline>
</glyph>
<glyph name="hookabovecomb" format="2">
  <unicode hex="0309"/>
  <anchor x="360" y="600" name="_top"/>
  <outline>
    <contour>
      <point x="328" y="690" type="curve"/>
      <point x="426" y="690" type="line"/>
      <point x="449" y="717"/>
      <point x="471" y="750"/>
      <point x="471" y="795" type="curve" smooth="yes"/>
      <point x="471" y="866"/>
      <point x="411" y="909"/>
      <point x="341" y="909" type="curve" smooth="yes"/>
      <point x="306" y="909"/>
      <point x="268" y="899"/>
      <point x="239" y="877" type="curve"/>
      <point x="260" y="795" type="line"/>
      <point x="275" y="814"/>
      <point x="300" y="831"/>
      <point x="328" y="831" type="curve" smooth="yes"/>
      <point x="359" y="831"/>
      <point x="380" y="811"/>
      <point x="380" y="783" type="curve" smooth="yes"/>
      <point x="380" y="758"/>
      <point x="361" y="728"/>
    </contour>
  </outline>
</glyph>
<glyph name="horncomb" format="2">
  <unicode hex="031B"/>
  <anchor x="237" y="600" name="_topright"/>
  <outline>
    <contour>
      <point x="333" y="398" type="curve" smooth="yes"/>
      <point x="412" y="398"/>
      <point x="483" y="459"/>
      <point x="483" y="565" type="curve" smooth="yes"/>
      <point x="483" y="660" type="line"/>
      <point x="387" y="660" type="line"/>
      <point x="387" y="561" type="line" smooth="yes"/>
      <point x="387" y="516"/>
      <point x="359" y="476"/>
      <point x="309" y="476" type="curve" smooth="yes"/>
      <point x="277" y="476"/>
      <point x="248" y="494"/>
      <point x="237" y="529" type="curve"/>
      <point x="237" y="433" type="line"/>
      <point x="263" y="410"/>
      <point x="297" y="398"/>
    </contour>
  </outline>
</glyph>
<glyph name="ellipsis" format="2">
  <advance width="1440"/>
  <unicode hex="2026"/>
  <outline>
    <contour>
      <point x="240" y="-12" type="curve" smooth="yes"/>
      <point x="283" y="-12"/>
      <point x="315" y="21"/>
      <point x="315" y="63" type="curve" smooth="yes"/>
      <point x="315" y="105"/>
      <point x="283" y="138"/>
      <point x="240" y="138" type="curve" smooth="yes"/>
      <point x="198" y="138"/>
      <point x="165" y="105"/>
      <point x="165" y="63" type="curve" smooth="yes"/>
      <point x="165" y="21"/>
      <point x="198" y="-12"/>
    </contour>
    <contour>
      <point x="720" y="-12" type="curve" smooth="yes"/>
      <point x="763" y="-12"/>
      <point x="795" y="21"/>
      <point x="795" y="63" type="curve" smooth="yes"/>
      <point x="795" y="105"/>
      <point x="763" y="138"/>
      <point x="720" y="138" type="curve" smooth="yes"/>
      <point x="678" y="138"/>
      <point x="645" y="105"/>
      <point x="645" y="63" type="curve" smooth="yes"/>
      <point x="645" y="21"/>
      <point x="678" y="-12"/>
    </contour>
    <contour>
      <point x="1200" y="-12" type="curve" smooth="yes"/>
      <point x="1243" y="-12"/>
      <point x="1275" y="21"/>
      <point x="1275" y="63" type="curve" smooth="yes"/>
      <point x="1275" y="105"/>
      <point x="1243" y="138"/>
      <point x="1200" y="138" type="curve" smooth="yes"/>
      <point x="1158" y="138"/>
      <point x="1125" y="105"/>
      <point x="1125" y="63" type="curve" smooth="yes"/>
      <point x="1125" y="21"/>
      <point x="1158" y="-12"/>
    </contour>
  </outline>
</glyph>
<glyph name="careof" format="2">
  <advance width="960"/>
  <unicode hex="2105"/>
  <outline>
    <contour>
      <point x="106" y="0" type="line"/>
      <point x="196" y="0" type="line"/>
      <point x="814" y="900" type="line"/>
      <point x="724" y="900" type="line"/>
    </contour>
    <contour>
      <point x="692" y="-10" type="curve"/>
      <point x="692" y="73" type="line"/>
      <point x="641" y="86"/>
      <point x="606" y="129"/>
      <point x="606" y="180" type="curve" smooth="yes"/>
      <point x="606" y="231"/>
      <point x="641" y="274"/>
      <point x="692" y="287" type="curve"/>
      <point x="692" y="370" type="line"/>
      <point x="594" y="356"/>
      <point x="522" y="276"/>
      <point x="522" y="180" type="curve" smooth="yes"/>
      <point x="522" y="84"/>
      <point x="594" y="4"/>
    </contour>
    <contour>
      <point x="212" y="530" type="curve"/>
      <point x="212" y="613" type="line"/>
      <point x="161" y="626"/>
      <point x="126" y="669"/>
      <point x="126" y="720" type="curve" smooth="yes"/>
      <point x="126" y="771"/>
      <point x="161" y="814"/>
      <point x="212" y="827" type="curve"/>
      <point x="212" y="910" type="line"/>
      <point x="115" y="897"/>
      <point x="42" y="817"/>
      <point x="42" y="720" type="curve" smooth="yes"/>
      <point x="42" y="623"/>
      <point x="115" y="543"/>
    </contour>
    <contour>
      <point x="268" y="528" type="line"/>
      <point x="307" y="530"/>
      <point x="343" y="542"/>
      <point x="373" y="562" type="curve"/>
      <point x="352" y="646" type="line"/>
      <point x="333" y="624"/>
      <point x="303" y="610"/>
      <point x="268" y="609" type="curve"/>
    </contour>
    <contour>
      <point x="748" y="-10" type="line"/>
      <point x="846" y="4"/>
      <point x="918" y="84"/>
      <point x="918" y="180" type="curve" smooth="yes"/>
      <point x="918" y="276"/>
      <point x="846" y="356"/>
      <point x="748" y="370" type="curve"/>
      <point x="748" y="287" type="line"/>
      <point x="798" y="274"/>
      <point x="834" y="231"/>
      <point x="834" y="180" type="curve" smooth="yes"/>
      <point x="834" y="129"/>
      <point x="798" y="86"/>
      <point x="748" y="73" type="curve"/>
    </contour>
    <contour>
      <point x="352" y="795" type="curve"/>
      <point x="373" y="878" type="line"/>
      <point x="343" y="898"/>
      <point x="307" y="910"/>
      <point x="268" y="912" type="curve"/>
      <point x="268" y="831" type="line"/>
      <point x="303" y="830"/>
      <point x="333" y="816"/>
    </contour>
  </outline>
</glyph>
<glyph name="approxequal" format="2">
  <advance width="750"/>
  <unicode hex="2248"/>
  <outline>
    <contour>
      <point x="96" y="453" type="line"/>
      <point x="126" y="517"/>
      <point x="171" y="564"/>
      <point x="238" y="564" type="curve" smooth="yes"/>
      <point x="328" y="564"/>
      <point x="412" y="480"/>
      <point x="518" y="480" type="curve" smooth="yes"/>
      <point x="596" y="480"/>
      <point x="666" y="525"/>
      <point x="702" y="604" type="curve"/>
      <point x="654" y="687" type="line"/>
      <point x="624" y="623"/>
      <point x="579" y="576"/>
      <point x="512" y="576" type="curve" smooth="yes"/>
      <point x="422" y="576"/>
      <point x="338" y="660"/>
      <point x="232" y="660" type="curve" smooth="yes"/>
      <point x="154" y="660"/>
      <point x="84" y="615"/>
      <point x="48" y="536" type="curve"/>
    </contour>
    <contour>
      <point x="96" y="213" type="line"/>
      <point x="126" y="277"/>
      <point x="171" y="324"/>
      <point x="238" y="324" type="curve" smooth="yes"/>
      <point x="328" y="324"/>
      <point x="412" y="240"/>
      <point x="518" y="240" type="curve" smooth="yes"/>
      <point x="596" y="240"/>
      <point x="666" y="285"/>
      <point x="702" y="364" type="curve"/>
      <point x="654" y="447" type="line"/>
      <point x="624" y="383"/>
      <point x="579" y="336"/>
      <point x="512" y="336" type="curve" smooth="yes"/>
      <point x="422" y="336"/>
      <point x="338" y="420"/>
      <point x="232" y="420" type="curve" smooth="yes"/>
      <point x="154" y="420"/>
      <point x="84" y="375"/>
      <point x="48" y="296" type="curve"/>
    </contour>
  </outline>
</glyph>
<glyph name="rightanglebracket-math" format="2">
  <advance width="480"/>
  <unicode hex="27E9"/>
  <outline>
    <contour>
      <point x="54" y="-180" type="line"/>
      <point x="168" y="-180" type="line"/>
      <point x="432" y="390" type="line"/>
      <point x="168" y="960" type="line"/>
      <point x="54" y="960" type="line"/>
      <point x="318" y="390" type="line"/>
    </contour>
  </outline>
</glyph>
<glyph name="bracketright.titl" format="2">
  <advance width="480"/>
  <outline>
    <contour>
      <point x="60" y="-180" type="line"/>
      <point x="340" y="-180" type="line"/>
      <point x="340" y="960" type="line"/>
      <point x="60" y="960" type="line"/>
      <point x="60" y="906" type="line"/>
      <point x="282" y="906" type="line"/>
      <point x="282" y="-126" type="line"/>
      <point x="60" y="-126" type="line"/>
    </contour>
  </outline>
</glyph>
<glyph name="dieresiscomb.Odieresis.case" format="2">
  <anchor x="510" y="900" name="_top"/>
  <outline>
    <contour>
      <point x="240" y="918" type="curve" smooth="yes"/>
      <point x="281" y="918"/>
      <point x="312" y="949"/>
      <point x="312" y="990" type="curve" smooth="yes"/>
      <point x="312" y="1031"/>
      <point x="281" y="1062"/>
      <point x="240" y="1062" type="curve" smooth="yes"/>
      <point x="199" y="1062"/>
      <point x="168" y="1031"/>
      <point x="168" y="990" type="curve" smooth="yes"/>
      <point x="168" y="949"/>
      <point x="199" y="918"/>
    </contour>
    <contour>
      <point x="780" y="918" type="curve" smooth="yes"/>
      <point x="821" y="918"/>
      <point x="852" y="949"/>
      <point x="852" y="990" type="curve" smooth="yes"/>
      <point x="852" y="1031"/>
      <point x="821" y="1062"/>
      <point x="780" y="1062" type="curve" smooth="yes"/>
      <point x="739" y="1062"/>
      <point x="708" y="1031"/>
      <point x="708" y="990" type="curve" smooth="yes"/>
      <point x="708" y="949"/>
      <point x="739" y="918"/>
    </contour>
  </outline>
</glyph>
<glyph name="gravecomb.small" format="2">
  <anchor x="406" y="600" name="_top"/>
  <outline>
    <contour>
      <point x="370" y="630" type="line"/>
      <point x="454" y="630" type="line"/>
      <point x="378" y="780" type="line"/>
      <point x="266" y="780" type="line"/>
    </contour>
  </outline>
</glyph>
<glyph name="hookabovecomb.case" format="2">
  <anchor x="360" y="900" name="_top"/>
  <outline>
    <contour>
      <point x="324" y="990" type="curve"/>
      <point x="426" y="990" type="line"/>
      <point x="449" y="1017"/>
      <point x="471" y="1053"/>
      <point x="471" y="1098" type="curve" smooth="yes"/>
      <point x="471" y="1169"/>
      <point x="414" y="1212"/>
      <point x="338" y="1212" type="curve" smooth="yes"/>
      <point x="301" y="1212"/>
      <point x="258" y="1202"/>
      <point x="229" y="1180" type="curve"/>
      <point x="251" y="1095" type="line"/>
      <point x="266" y="1114"/>
      <point x="290" y="1131"/>
      <point x="321" y="1131" type="curve" smooth="yes"/>
      <point x="355" y="1131"/>
      <point x="376" y="1111"/>
      <point x="376" y="1083" type="curve" smooth="yes"/>
      <point x="376" y="1058"/>
      <point x="357" y="1028"/>
    </contour>
  </outline>
</glyph>
<glyph name="l.lslash" format="2">
  <advance width="300"/>
  <anchor x="150" y="0" name="bottom"/>
  <anchor x="150" y="480" name="center"/>
  <anchor x="360" y="420" name="periodcentered"/>
  <anchor x="150" y="960" name="top"/>
  <anchor x="204" y="960" name="topright"/>
  <outline>
    <contour>
      <point x="96" y="414" type="line"/>
      <point x="204" y="485" type="line"/>
      <point x="204" y="960" type="line"/>
      <point x="96" y="960" type="line"/>
    </contour>
    <contour>
      <point x="96" y="0" type="line"/>
      <point x="204" y="0" type="line"/>
      <point x="204" y="395" type="line"/>
      <point x="96" y="324" type="line"/>
    </contour>
  </outline>
</glyph>
<glyph name="nine.numr" format="2">
  <advance width="480"/>
  <outline>
    <contour>
      <point x="184" y="420" type="line"/>
      <point x="276" y="420" type="line"/>
      <point x="396" y="659" type="line" smooth="yes"/>
      <point x="408" y="683"/>
      <point x="416" y="713"/>
      <point x="416" y="741" type="curve" smooth="yes"/>
      <point x="416" y="827"/>
      <point x="353" y="896"/>
      <point x="268" y="910" type="curve"/>
      <point x="268" y="827" type="line"/>
      <point x="306" y="815"/>
      <point x="330" y="782"/>
      <point x="330" y="743" type="curve" smooth="yes"/>
      <point x="330" y="719"/>
      <point x="325" y="700"/>
      <point x="306" y="662" type="curve" smooth="yes"/>
    </contour>
    <contour>
      <point x="209" y="576" type="curve"/>
      <point x="249" y="652" type="line"/>
      <point x="192" y="652"/>
      <point x="150" y="685"/>
      <point x="150" y="743" type="curve" smooth="yes"/>
      <point x="150" y="782"/>
      <point x="175" y="815"/>
      <point x="212" y="827" type="curve"/>
      <point x="212" y="910" type="line"/>
      <point x="127" y="896"/>
      <point x="64" y="827"/>
      <point x="64" y="740" type="curve" smooth="yes"/>
      <point x="64" y="652"/>
      <point x="128" y="585"/>
    </contour>
  </outline>
</glyph>
<glyph name="registered.lf" format="2">
  <advance width="1260"/>
  <outline>
    <contour>
      <point x="662" y="-191" type="line"/>
      <point x="955" y="-176"/>
      <point x="1188" y="65"/>
      <point x="1188" y="360" type="curve" smooth="yes"/>
      <point x="1188" y="655"/>
      <point x="955" y="896"/>
      <point x="662" y="911" type="curve"/>
      <point x="662" y="821" type="line"/>
      <point x="902" y="806"/>
      <point x="1092" y="605"/>
      <point x="1092" y="360" type="curve" smooth="yes"/>
      <point x="1092" y="115"/>
      <point x="902" y="-86"/>
      <point x="662" y="-101" type="curve"/>
    </contour>
    <contour>
      <point x="598" y="-191" type="curve"/>
      <point x="598" y="-101" type="line"/>
      <point x="358" y="-86"/>
      <point x="168" y="115"/>
      <point x="168" y="360" type="curve" smooth="yes"/>
      <point x="168" y="605"/>
      <point x="358" y="805"/>
      <point x="598" y="821" type="curve"/>
      <point x="598" y="911" type="line"/>
      <point x="305" y="896"/>
      <point x="72" y="655"/>
      <point x="72" y="360" type="curve" smooth="yes"/>
      <point x="72" y="65"/>
      <point x="305" y="-176"/>
    </contour>
    <contour>
      <point x="442" y="90" type="line"/>
      <point x="538" y="90" type="line"/>
      <point x="538" y="630" type="line"/>
      <point x="442" y="630" type="line"/>
    </contour>
    <contour>
      <point x="777" y="90" type="line"/>
      <point x="888" y="90" type="line"/>
      <point x="736" y="306" type="line"/>
      <point x="798" y="334"/>
      <point x="836" y="390"/>
      <point x="836" y="457" type="curve" smooth="yes"/>
      <point x="836" y="551"/>
      <point x="762" y="630"/>
      <point x="641" y="630" type="curve" smooth="yes"/>
      <point x="598" y="630" type="line"/>
      <point x="598" y="546" type="line"/>
      <point x="636" y="546" type="line" smooth="yes"/>
      <point x="699" y="546"/>
      <point x="740" y="510"/>
      <point x="740" y="457" type="curve" smooth="yes"/>
      <point x="740" y="412"/>
      <point x="707" y="366"/>
      <point x="636" y="366" type="curve" smooth="yes"/>
      <point x="598" y="366" type="line"/>
      <point x="598" y="287" type="line"/>
      <point x="641" y="287" type="line" smooth="yes"/>
      <point x="650" y="287"/>
      <point x="659" y="287"/>
      <point x="668" y="288" type="curve"/>
      <point x="620" y="317" type="line"/>
    </contour>
  </outline>
</glyph>
<glyph name="zero.lf.ss01" format="2">
  <advance width="1060"/>
  <outline>
    <contour>
      <point x="564" y="-17" type="line"/>
      <point x="806" y="-2"/>
      <point x="1000" y="201"/>
      <point x="1000" y="450" type="curve" smooth="yes"/>
      <point x="1000" y="699"/>
      <point x="806" y="902"/>
      <point x="564" y="917" type="curve"/>
      <point x="564" y="809" type="line"/>
      <point x="743" y="794"/>
      <point x="882" y="639"/>
      <point x="882" y="450" type="curve" smooth="yes"/>
      <point x="882" y="261"/>
      <point x="743" y="106"/>
      <point x="564" y="91" type="curve"/>
    </contour>
    <contour>
      <point x="496" y="-17" type="curve"/>
      <point x="496" y="91" type="line"/>
      <point x="317" y="106"/>
      <point x="178" y="261"/>
      <point x="178" y="450" type="curve" smooth="yes"/>
      <point x="178" y="639"/>
      <point x="317" y="794"/>
      <point x="496" y="809" type="curve"/>
      <point x="496" y="917" type="line"/>
      <point x="254" y="902"/>
      <point x="60" y="699"/>
      <point x="60" y="450" type="curve" smooth="yes"/>
      <point x="60" y="201"/>
      <point x="254" y="-2"/>
    </contour>
  </outline>
</glyph>
